<?xml version="1.0" encoding="UTF-8"?>
<svg xmlns="http://www.w3.org/2000/svg" xmlns:xlink="http://www.w3.org/1999/xlink" viewBox="0 0 1920 924">
  <defs>
    <style>
      .cls-1 {
        fill: url(#linear-gradient);
      }

      .cls-1, .cls-2, .cls-3, .cls-4, .cls-5, .cls-6, .cls-7, .cls-8, .cls-9, .cls-10 {
        stroke-width: 0px;
      }

      .cls-2 {
        fill: url(#linear-gradient-6);
      }

      .cls-11 {
        isolation: isolate;
      }

      .cls-3 {
        fill: url(#Degradado_sin_nombre_71);
      }

      .cls-4 {
        fill: url(#Degradado_sin_nombre_320);
      }

      .cls-5 {
        fill: url(#linear-gradient-5);
      }

      .cls-12 {
        filter: url(#drop-shadow-1);
      }

      .cls-6 {
        fill: url(#Degradado_sin_nombre_67);
        mix-blend-mode: overlay;
      }

      .cls-7 {
        fill: url(#linear-gradient-2);
      }

      .cls-8 {
        fill: url(#linear-gradient-3);
      }

      .cls-9 {
        fill: url(#Degradado_sin_nombre_5);
      }

      .cls-10 {
        fill: url(#linear-gradient-4);
      }
    </style>
    <filter id="drop-shadow-1" filterUnits="userSpaceOnUse">
      <feOffset dx="4.6" dy="4.6"/>
      <feGaussianBlur result="blur" stdDeviation="4.6"/>
      <feFlood flood-color="#000" flood-opacity=".5"/>
      <feComposite in2="blur" operator="in"/>
      <feComposite in="SourceGraphic"/>
    </filter>
    <linearGradient id="Degradado_sin_nombre_5" data-name="Degradado sin nombre 5" x1="960.66" y1="101.65" x2="960.66" y2="720.44" gradientUnits="userSpaceOnUse">
      <stop offset="0" stop-color="#113345"/>
      <stop offset=".44" stop-color="#2f6ca3"/>
      <stop offset=".72" stop-color="#4392e1"/>
      <stop offset="1" stop-color="aqua"/>
    </linearGradient>
    <linearGradient id="linear-gradient" x1="245.84" y1="495.13" x2="406.21" y2="807.5" gradientUnits="userSpaceOnUse">
      <stop offset=".02" stop-color="#134"/>
      <stop offset=".28" stop-color="#123447"/>
      <stop offset=".53" stop-color="#153854"/>
      <stop offset=".79" stop-color="#1a3f67"/>
      <stop offset="1" stop-color="#21477e"/>
    </linearGradient>
    <linearGradient id="Degradado_sin_nombre_71" data-name="Degradado sin nombre 71" x1="-45.17" y1="483.53" x2="371.27" y2="750.48" gradientUnits="userSpaceOnUse">
      <stop offset=".01" stop-color="#5ba8e1"/>
      <stop offset=".33" stop-color="#4a8cc4"/>
      <stop offset="1" stop-color="#21477e"/>
    </linearGradient>
    <linearGradient id="linear-gradient-2" x1="840.45" y1="447.34" x2="1038.64" y2="936.33" xlink:href="#linear-gradient"/>
    <linearGradient id="linear-gradient-3" x1="516.72" y1="490.46" x2="931.64" y2="750.66" gradientUnits="userSpaceOnUse">
      <stop offset=".01" stop-color="#5ba8e1"/>
      <stop offset=".33" stop-color="#4a8cc4"/>
      <stop offset="1" stop-color="#21477e"/>
    </linearGradient>
    <linearGradient id="Degradado_sin_nombre_320" data-name="Degradado sin nombre 320" x1="1414.08" y1="490.41" x2="1552.56" y2="895.61" gradientUnits="userSpaceOnUse">
      <stop offset=".02" stop-color="#134"/>
      <stop offset=".28" stop-color="#123447"/>
      <stop offset=".53" stop-color="#153854"/>
      <stop offset=".79" stop-color="#1a3f67"/>
      <stop offset="1" stop-color="#21477e"/>
    </linearGradient>
    <linearGradient id="linear-gradient-4" x1="1155.37" y1="549.43" x2="1451.28" y2="737.96" xlink:href="#linear-gradient-3"/>
    <linearGradient id="linear-gradient-5" x1="961.8" y1="727.31" x2="959.59" y2="983.03" xlink:href="#linear-gradient"/>
    <linearGradient id="linear-gradient-6" x1="961.2" y1="845.38" x2="960.8" y2="991.02" xlink:href="#linear-gradient"/>
    <radialGradient id="Degradado_sin_nombre_67" data-name="Degradado sin nombre 67" cx="958.73" cy="318.4" fx="958.73" fy="318.4" r="640.42" gradientTransform="translate(451.29 -606.11) rotate(45)" gradientUnits="userSpaceOnUse">
      <stop offset=".29" stop-color="#dfedfe" stop-opacity="0"/>
      <stop offset=".33" stop-color="rgba(223, 237, 254, .09)" stop-opacity=".09"/>
      <stop offset=".45" stop-color="rgba(223, 239, 254, .41)" stop-opacity=".41"/>
      <stop offset=".56" stop-color="rgba(223, 240, 254, .66)" stop-opacity=".66"/>
      <stop offset=".65" stop-color="rgba(223, 241, 254, .85)" stop-opacity=".85"/>
      <stop offset=".72" stop-color="rgba(223, 241, 254, .96)" stop-opacity=".96"/>
      <stop offset=".76" stop-color="#dff2fe"/>
    </radialGradient>
  </defs>
  <g class="cls-11">
    <g id="Capa_2" data-name="Capa 2" class="cls-12">
      <g>
        <g>
          <rect class="cls-9" x=".66" y="-.82" width="1920" height="758.7"/>
          <g>
            <g>
              <g>
                <polygon class="cls-1" points="-38.98 804.29 848.11 804.29 566.77 584.48 486.16 534.76 422.41 466.46 376.55 478.91 -38.98 761.72 -38.98 804.29"/>
                <polygon class="cls-3" points="376.55 478.91 -38.98 761.72 -38.98 804.29 54.83 804.29 107.27 749.61 151.76 730.9 239.51 730.9 455.78 604.61 151.76 708.68 202.43 667.75 230.86 665.41 241.98 635.38 404.56 515.73 284 578.88 422.41 466.46 376.55 478.91"/>
              </g>
              <g>
                <polygon class="cls-7" points="331.48 804.29 636.25 594.72 704.71 574.33 884.2 425.24 932.37 364.76 983.08 375.56 1204.93 568.68 1420.44 664.64 1444.53 689.83 1638.42 803.44 331.48 804.29"/>
                <polygon class="cls-8" points="704.71 574.33 636.25 594.72 364.68 781.46 832.71 781.46 937.75 743.76 984.95 661.91 927.87 702.83 700.47 736.75 998.31 622.15 888.32 584.53 977.3 518.07 901.92 548.48 889.56 539.12 854.95 550.82 882.14 526.26 761.03 591.74 994.6 435.05 908.82 468.96 935.28 437.39 848.11 487.93 950.11 388.4 932.37 364.76 884.2 425.24 704.71 574.33"/>
              </g>
              <g>
                <polygon class="cls-4" points="1037.49 804.29 1279.18 657 1499.13 487.93 1586.33 494.03 1681.88 603.71 1843.62 691.34 1872.14 718.55 2004.98 803.6 1037.49 804.29"/>
                <polygon class="cls-10" points="1590.28 672.43 1304.8 755.46 1354.29 699.33 1399.96 695.82 1424.67 652.55 1560.62 542.63 1485.23 573.11 1487.7 540.29 1586.33 494.03 1499.13 487.93 1279.18 657 1037.49 804.29 1374.91 804.05 1590.28 672.43"/>
              </g>
            </g>
            <polygon class="cls-5" points="1876.46 731.35 1865.88 697.23 1857.94 729.62 1853.09 709.02 1846.47 735.21 1842.5 726.49 1834.57 747.42 1824.42 714.61 1819.13 735.47 1816.04 726.73 1811.19 745.82 1802.37 709 1794.44 746.25 1787.82 725.99 1783.85 736.82 1777.68 707.87 1770.18 735.84 1764.89 719.66 1759.16 743.18 1744.6 751.49 1734.02 705.9 1724.76 738.77 1721.23 727.4 1714.17 751.39 1706.24 720.29 1700.08 738.52 1691.24 707.44 1682.42 739.42 1676.69 727.66 1671.4 740.14 1663.9 716.08 1659.05 729.3 1653.32 704 1637.44 749.83 1629.94 730.18 1625.09 741.77 1618.48 715.04 1609.66 743.92 1605.25 733.46 1596.87 750.87 1581.88 752.14 1575.26 735.99 1569.53 749.81 1561.59 727.52 1557.18 741.75 1548.8 709.77 1538.19 741.36 1531.16 725.22 1524.11 743.48 1515.73 713.71 1510.43 743.83 1507.79 732.87 1502.06 751.98 1487.94 754.11 1476.92 720.44 1469.86 744.87 1465.45 732.2 1457.51 756.21 1450.02 719.8 1442.96 746 1438.11 729.81 1432.38 744.07 1424.88 716.04 1411.21 761.1 1401.07 736.94 1396.98 748.07 1390.69 737.46 1384.31 748.39 1376.37 723.02 1370.2 743.46 1367.55 733.83 1356.53 760.13 1349.03 727.25 1344.62 748.53 1340.65 737.16 1332.71 758.98 1322.57 726.6 1317.28 743.05 1313.31 735.22 1307.58 747.71 1300.52 730.26 1293.46 750.72 1289.49 741.87 1283.06 758.93 1275.38 731.78 1269.21 750.02 1266.12 741.28 1256.86 765.06 1249.36 737.74 1244.07 758.6 1236.13 738.08 1231.28 748.35 1226.87 729.06 1220.26 751.72 1215.85 739.48 1211.88 748.85 1206.59 730.02 1194.68 762.08 1189.39 743.69 1185.42 753.49 1180.13 736.43 1175.28 750.23 1169.94 727.87 1162.05 757.62 1154.11 762.24 1148.82 741.64 1144.27 753.23 1140.44 746.71 1136.47 752.99 1129.41 730.24 1119.71 764 1113.1 747.41 1106.48 764.34 1098.54 741.17 1093.69 754.97 1087.08 735.73 1080.9 754.41 1079.14 748.28 1072.97 763 1067.23 744.84 1061.5 761.97 1044.74 764.16 1038.13 746.69 1033.72 756.06 1028.87 738.99 1024.9 754.53 1022.25 748.42 1016.08 765.78 1009.9 738.59 1005.49 753.7 1001.85 747.18 997.11 757.89 989.62 741.76 983 754.28 978.15 743.82 972.86 754.98 965.36 727.83 958.67 751.04 958.67 724.92 947.7 755.18 937.11 721.06 929.18 753.45 924.33 732.85 917.71 759.04 913.74 750.32 905.8 771.25 895.66 738.44 890.37 759.3 887.28 750.56 882.43 769.65 873.61 732.83 865.67 770.08 859.06 749.83 855.09 760.65 848.91 731.7 841.42 759.68 836.13 743.49 830.39 767.01 815.84 775.33 805.26 729.73 796 762.61 792.47 751.23 785.41 775.22 777.47 744.12 771.32 762.36 762.48 731.27 753.66 763.25 747.93 751.49 742.63 763.97 735.14 739.91 730.29 753.13 724.55 727.84 708.68 773.67 701.18 754.01 696.33 765.6 689.72 738.87 680.9 767.75 676.49 757.29 668.11 774.71 653.11 775.97 646.5 759.83 640.76 773.64 632.83 751.36 628.42 765.58 620.04 733.6 609.43 765.19 602.4 749.05 595.34 767.31 586.96 737.54 581.67 767.66 579.03 756.71 573.29 775.82 559.18 777.94 548.16 744.27 541.1 768.7 536.69 756.03 528.75 780.05 521.26 743.64 514.2 769.84 509.35 753.64 503.62 767.9 496.12 739.87 483.89 780.17 480.45 780.17 472.3 760.77 468.22 771.9 461.92 761.29 455.55 772.22 447.61 746.85 441.43 767.29 438.79 757.66 429.35 780.17 426.9 780.17 420.27 751.08 415.86 772.36 411.89 761 404.91 780.17 403.12 780.17 393.81 750.43 388.51 766.89 384.55 759.05 378.81 771.55 371.76 754.09 364.7 774.55 360.73 765.7 355.28 780.17 353.56 780.17 346.62 755.61 340.45 773.85 337.36 765.11 331.5 780.17 325.7 780.17 320.6 761.57 315.89 780.17 314.43 780.17 307.37 761.91 302.52 772.18 298.11 752.89 291.5 775.55 287.09 763.32 283.12 772.68 277.82 753.85 268.05 780.17 264.27 780.17 260.63 767.52 256.66 777.33 251.37 760.26 246.51 774.06 241.18 751.71 233.63 780.17 223.83 780.17 220.05 765.48 215.51 777.06 211.68 770.54 207.71 776.82 200.65 754.07 193.15 780.17 187.89 780.17 184.33 771.24 180.85 780.17 174.98 780.17 169.78 765 164.93 778.8 158.32 759.56 152.14 778.24 150.38 772.12 147 780.17 142.1 780.17 138.47 768.67 134.62 780.17 113.02 780.17 109.36 770.52 104.95 779.9 100.1 762.82 96.14 778.36 93.49 772.25 90.67 780.17 85.17 780.17 81.14 762.43 76.73 777.53 73.08 771.01 69.04 780.17 67.63 780.17 60.86 765.59 54.24 778.11 49.39 767.65 44.1 778.81 36.6 751.66 28.38 780.17 18.29 780.17 9.4 757.37 5.81 780.82 .66 781.09 .66 936.82 1920.66 936.82 1921.6 725.65 1912.71 733.47 1910.84 720.85 1906.5 733.3 1901.33 715.71 1892.64 734.34 1887.43 701.08 1876.46 731.35"/>
            <polygon class="cls-2" points="1887.43 882.38 1876.4 844.17 1868.91 871.32 1863.62 860.16 1858.76 870.62 1852.15 858.1 1844.65 874.23 1839.92 863.52 1836.27 870.04 1831.86 854.94 1825.69 882.12 1819.52 864.76 1816.87 870.87 1812.9 855.33 1808.05 872.41 1803.64 863.03 1797.03 880.5 1780.27 878.31 1774.54 861.18 1768.8 879.34 1762.63 864.63 1760.86 870.75 1754.69 852.07 1748.07 871.31 1743.22 857.51 1735.29 880.68 1728.67 863.75 1722.06 880.34 1712.35 846.58 1705.3 869.33 1701.33 863.05 1697.5 869.57 1692.95 857.99 1687.66 878.58 1679.72 873.96 1671.83 844.21 1666.49 866.57 1661.64 852.77 1656.35 869.84 1652.38 860.03 1647.09 878.42 1635.18 846.36 1629.89 865.19 1625.92 855.83 1621.51 868.06 1614.89 845.4 1610.48 864.69 1605.63 854.42 1597.7 874.95 1592.4 854.08 1584.91 881.4 1575.65 857.62 1572.56 866.36 1566.38 848.12 1558.71 875.27 1552.27 858.21 1548.3 867.06 1541.25 846.6 1534.19 864.06 1528.46 851.56 1524.49 859.4 1519.2 842.94 1509.05 875.32 1501.12 853.5 1497.15 864.87 1492.74 843.59 1485.24 876.47 1474.22 850.17 1471.57 859.8 1465.4 839.36 1457.46 864.73 1451.08 853.8 1444.78 864.41 1440.7 853.28 1430.56 877.44 1416.89 832.38 1409.39 860.41 1403.66 846.15 1398.81 862.35 1391.75 836.15 1384.25 872.56 1376.32 848.54 1371.91 861.21 1364.85 836.78 1353.82 870.45 1339.71 868.33 1333.98 849.22 1331.33 860.17 1326.04 830.05 1317.66 859.82 1310.61 841.56 1303.57 857.7 1292.97 826.11 1284.59 858.09 1280.18 843.87 1272.24 866.15 1266.51 852.34 1259.89 868.48 1244.9 867.22 1236.52 849.8 1232.11 860.26 1223.29 831.38 1216.67 858.11 1211.82 846.52 1204.33 866.18 1188.45 820.35 1182.72 845.64 1177.87 832.42 1170.37 856.48 1165.08 844 1159.35 855.76 1150.53 823.78 1141.69 854.87 1135.53 836.63 1127.59 867.73 1120.54 843.74 1117.01 855.11 1107.75 822.24 1097.16 867.84 1082.61 859.52 1076.88 836 1071.59 852.19 1064.09 824.21 1057.92 853.16 1053.95 842.34 1047.33 862.59 1039.39 825.34 1030.57 862.16 1025.72 843.07 1022.64 851.81 1017.34 830.95 1007.2 863.76 999.26 842.83 995.29 851.55 988.68 825.36 983.83 845.96 975.89 813.57 965.31 847.69 954.34 817.42 954.34 843.55 947.64 820.34 940.15 847.49 934.85 836.33 930 846.79 923.39 834.27 915.89 850.39 911.16 839.69 907.51 846.21 903.1 831.1 896.93 858.29 890.75 840.93 888.11 847.04 884.14 831.5 879.29 848.57 874.88 839.2 868.26 856.67 851.51 854.48 845.77 837.35 840.04 855.5 833.86 840.79 832.1 846.92 825.93 828.24 819.31 847.48 814.46 833.68 806.52 856.85 799.91 839.92 793.29 856.51 783.59 822.75 776.54 845.5 772.57 839.22 768.73 845.74 764.19 834.15 758.9 854.75 750.96 850.13 743.07 820.38 737.73 842.74 732.88 828.94 727.59 846 723.62 836.2 718.32 854.59 706.42 822.53 701.13 841.36 697.16 831.99 692.75 844.23 686.13 821.57 681.72 840.86 676.87 830.59 668.93 851.11 663.64 830.25 656.14 857.57 646.88 833.79 643.8 842.53 637.62 824.29 629.94 851.44 623.51 834.38 619.54 843.23 612.49 822.76 605.43 840.22 599.7 827.73 595.73 835.56 590.44 819.11 580.29 851.49 572.35 829.67 568.39 841.04 563.98 819.76 556.48 852.64 545.45 826.34 542.81 835.97 536.63 815.53 528.7 840.9 522.32 829.97 516.02 840.58 511.94 829.45 501.8 853.61 488.12 808.55 480.63 836.58 474.89 822.32 470.04 838.51 462.99 812.31 455.49 848.72 447.55 824.71 443.14 837.38 436.09 812.95 425.06 846.62 410.95 844.49 405.22 825.38 402.57 836.34 397.28 806.22 388.9 835.99 381.84 817.73 374.81 833.86 364.2 802.28 355.83 834.26 351.42 820.03 343.48 842.32 337.74 828.5 331.13 844.65 316.14 843.38 307.76 825.97 303.35 836.43 294.53 807.55 287.91 834.28 283.06 822.69 275.56 842.34 259.69 796.51 253.96 821.81 249.1 808.59 241.61 832.65 236.32 820.17 230.58 831.93 221.76 799.95 212.92 831.03 206.77 812.79 198.83 843.9 191.77 819.91 188.25 831.28 178.99 798.41 168.4 844 153.85 835.69 148.12 812.17 142.82 828.35 135.33 800.38 129.15 829.32 125.18 818.5 118.57 838.76 110.63 801.51 101.81 838.33 96.96 819.24 93.87 827.98 88.58 807.12 78.44 839.93 70.5 819 66.53 827.72 59.92 801.53 55.07 822.13 47.13 789.74 36.54 823.86 25.58 793.59 19.12 818.47 13.53 803.37 7.12 823.65 .66 815.78 .66 924.18 1921.6 924.18 1921.6 879.51 1917.43 856.96 1909.57 878.54 1905.29 865.71 1896.6 883.09 1892.88 873.16 1887.43 882.38"/>
          </g>
        </g>
        <g>
          <circle class="cls-6" cx="957.29" cy="241.7" r="211.91" transform="translate(109.48 747.7) rotate(-45)"/>
          <circle class="cls-6" cx="957.29" cy="241.7" r="211.91" transform="translate(109.48 747.7) rotate(-45)"/>
        </g>
      </g>
    </g>
  </g>
</svg>