<?xml version="1.0" encoding="UTF-8"?>
<svg id="Capa_2" data-name="Capa 2" xmlns="http://www.w3.org/2000/svg" xmlns:xlink="http://www.w3.org/1999/xlink" viewBox="0 0 592.62 65.14">
  <defs>
    <style>
      .cls-1 {
        fill: url(#linear-gradient);
      }

      .cls-1, .cls-2, .cls-3, .cls-4, .cls-5, .cls-6, .cls-7, .cls-8, .cls-9, .cls-10, .cls-11, .cls-12, .cls-13, .cls-14, .cls-15 {
        stroke-width: 0px;
      }

      .cls-2 {
        fill: url(#linear-gradient-6);
      }

      .cls-3 {
        fill: url(#linear-gradient-5);
      }

      .cls-16 {
        filter: url(#drop-shadow-1);
      }

      .cls-4 {
        fill: url(#linear-gradient-2);
      }

      .cls-5 {
        fill: url(#linear-gradient-7);
      }

      .cls-6 {
        fill: url(#radial-gradient-2);
      }

      .cls-7 {
        fill: url(#linear-gradient-3);
      }

      .cls-8 {
        fill: url(#radial-gradient-5);
      }

      .cls-9 {
        fill: url(#radial-gradient);
      }

      .cls-10 {
        fill: #fff;
      }

      .cls-11 {
        fill: url(#Degradado_sin_nombre_2);
      }

      .cls-12 {
        fill: url(#radial-gradient-6);
      }

      .cls-13 {
        fill: url(#radial-gradient-3);
      }

      .cls-14 {
        fill: url(#linear-gradient-4);
      }

      .cls-15 {
        fill: url(#radial-gradient-4);
      }
    </style>
    <filter id="drop-shadow-1" filterUnits="userSpaceOnUse">
      <feOffset dx="4.6" dy="4.6"/>
      <feGaussianBlur result="blur" stdDeviation="4.6"/>
      <feFlood flood-color="#000" flood-opacity=".5"/>
      <feComposite in2="blur" operator="in"/>
      <feComposite in="SourceGraphic"/>
    </filter>
    <radialGradient id="Degradado_sin_nombre_2" data-name="Degradado sin nombre 2" cx="315.53" cy="26.54" fx="315.53" fy="26.54" r="49.18" gradientTransform="translate(5.73 -35.62) rotate(6.51)" gradientUnits="userSpaceOnUse">
      <stop offset=".13" stop-color="#00fff8"/>
      <stop offset=".2" stop-color="#01f9f5"/>
      <stop offset=".3" stop-color="#04e8ee"/>
      <stop offset=".4" stop-color="#0acce2"/>
      <stop offset=".52" stop-color="#12a6d1"/>
      <stop offset=".64" stop-color="#1c75bc"/>
      <stop offset=".94" stop-color="#2b3990"/>
    </radialGradient>
    <linearGradient id="linear-gradient" x1="307.61" y1="58.41" x2="292" y2="55.24" gradientUnits="userSpaceOnUse">
      <stop offset="0" stop-color="#c8c9cb"/>
      <stop offset=".73" stop-color="#a6a7a9"/>
      <stop offset="1" stop-color="#999a9c"/>
    </linearGradient>
    <linearGradient id="linear-gradient-2" x1="284.34" y1="49.09" x2="339.23" y2="49.09" gradientUnits="userSpaceOnUse">
      <stop offset="0" stop-color="#c8c9cb"/>
      <stop offset=".14" stop-color="#c4c5c7"/>
      <stop offset=".27" stop-color="#b8b9bb"/>
      <stop offset=".4" stop-color="#a4a5a7"/>
      <stop offset=".46" stop-color="#999a9c"/>
      <stop offset=".7" stop-color="#abacae"/>
      <stop offset="1" stop-color="#c8c9cb"/>
    </linearGradient>
    <linearGradient id="linear-gradient-3" x1="310.05" y1="41.59" x2="347.86" y2="41.59" gradientUnits="userSpaceOnUse">
      <stop offset="0" stop-color="#c8c9cb"/>
      <stop offset="1" stop-color="#999a9c"/>
    </linearGradient>
    <linearGradient id="linear-gradient-4" x1="300.6" y1="32.41" x2="322.44" y2="32.41" gradientUnits="userSpaceOnUse">
      <stop offset="0" stop-color="#929395"/>
      <stop offset=".5" stop-color="#c8c9cb"/>
      <stop offset="1" stop-color="#999a9c"/>
    </linearGradient>
    <linearGradient id="linear-gradient-5" x1="284.32" y1="28" x2="348.28" y2="28" xlink:href="#linear-gradient-4"/>
    <linearGradient id="linear-gradient-6" x1="293.27" y1="8.77" x2="338.88" y2="8.77" xlink:href="#linear-gradient-4"/>
    <linearGradient id="linear-gradient-7" x1="320.72" y1="18.05" x2="347.81" y2="18.05" gradientUnits="userSpaceOnUse">
      <stop offset=".39" stop-color="#c8c9cb"/>
      <stop offset=".81" stop-color="#999a9c"/>
    </linearGradient>
    <radialGradient id="radial-gradient" cx="317.3" cy="21.97" fx="317.3" fy="21.97" r="46.52" gradientUnits="userSpaceOnUse">
      <stop offset=".04" stop-color="#fff"/>
      <stop offset=".35" stop-color="#e6e7e8"/>
      <stop offset=".43" stop-color="#dddedf"/>
      <stop offset=".57" stop-color="#c5c6c8"/>
      <stop offset=".75" stop-color="#9fa0a2"/>
      <stop offset=".94" stop-color="#6d6e71"/>
    </radialGradient>
    <radialGradient id="radial-gradient-2" cx="315.91" cy="21.97" fx="315.91" fy="21.97" r="46.35" xlink:href="#radial-gradient"/>
    <radialGradient id="radial-gradient-3" cx="317.3" cy="22.12" fx="317.3" fy="22.12" r="46.31" xlink:href="#radial-gradient"/>
    <radialGradient id="radial-gradient-4" cx="317.35" cy="22.94" fx="317.35" fy="22.94" r="45.65" xlink:href="#radial-gradient"/>
    <radialGradient id="radial-gradient-5" cx="317.3" cy="21.97" fx="317.3" fy="21.97" r="46.53" xlink:href="#radial-gradient"/>
    <radialGradient id="radial-gradient-6" cx="317.3" cy="21.97" fx="317.3" fy="21.97" r="46.53" xlink:href="#radial-gradient"/>
  </defs>
  <g id="Capa_2-2" data-name="Capa 2" class="cls-16">
    <g>
      <g>
        <path class="cls-10" d="M14.58,49.67c-2,0-3.89-.38-5.67-1.15-1.78-.76-3.33-1.81-4.65-3.13-1.32-1.32-2.36-2.87-3.12-4.65-.76-1.78-1.15-3.67-1.15-5.67s.38-3.94,1.15-5.72c.76-1.78,1.81-3.33,3.12-4.65,1.32-1.32,2.87-2.36,4.65-3.13,1.78-.76,3.67-1.15,5.67-1.15h39.04v6.38H14.58c-1.14,0-2.2.22-3.19.65-.99.43-1.85,1.02-2.6,1.76s-1.34,1.61-1.77,2.61c-.43,1-.65,2.08-.65,3.22s.21,2.21.65,3.2c.43.99,1.02,1.86,1.77,2.61s1.62,1.35,2.6,1.78c.99.43,2.05.65,3.19.65h32.67v-5.05h-27.21v-6.38h33.58v17.81H14.58Z"/>
        <path class="cls-10" d="M72.33,26.81v-6.38h53.62v6.38h-53.62ZM72.33,38.24v-6.38h53.62v6.38h-53.62ZM72.33,49.67v-6.38h53.62v6.38h-53.62Z"/>
        <path class="cls-10" d="M144.67,49.67v-6.38h44.75c.69,0,1.28-.24,1.77-.73.49-.49.73-1.08.73-1.77s-.24-1.33-.73-1.81c-.49-.49-1.08-.73-1.77-.73h-35.88c-1.22,0-2.37-.23-3.44-.69-1.07-.46-2.01-1.09-2.81-1.9-.81-.81-1.44-1.75-1.92-2.84-.47-1.08-.71-2.24-.71-3.46s.24-2.38.71-3.46c.47-1.08,1.11-2.03,1.92-2.84.81-.81,1.74-1.44,2.81-1.9,1.07-.46,2.21-.69,3.44-.69h43.12v6.38h-43.12c-.69,0-1.29.24-1.77.73-.49.49-.73,1.08-.73,1.77s.24,1.29.73,1.77c.49.49,1.08.73,1.77.73h35.88c1.22,0,2.38.24,3.46.71,1.08.47,2.03,1.11,2.83,1.92.81.81,1.44,1.75,1.9,2.84.46,1.08.69,2.24.69,3.46s-.23,2.37-.69,3.44c-.46,1.07-1.09,2.01-1.9,2.82-.81.81-1.75,1.45-2.83,1.92-1.08.47-2.24.71-3.46.71h-44.75Z"/>
        <path class="cls-10" d="M217,26.81v-6.38h17.25v6.38h-17.25ZM240.62,49.67v-29.24h30v6.38h-23.62v22.86h-6.38Z"/>
        <path class="cls-10" d="M301.04,49.67c-1.61,0-3.12-.31-4.54-.92-1.42-.61-2.66-1.45-3.73-2.52-1.07-1.07-1.91-2.32-2.52-3.73-.61-1.42-.92-2.93-.92-4.55v-5.76c0-1.61.31-3.14.92-4.57.61-1.43,1.45-2.68,2.52-3.73,1.07-1.06,2.31-1.9,3.73-2.52,1.42-.63,2.93-.94,4.54-.94h30.21c1.61,0,3.12.31,4.54.94,1.42.63,2.66,1.47,3.73,2.52,1.07,1.06,1.91,2.3,2.52,3.73.61,1.43.92,2.96.92,4.57v5.76c0,1.61-.31,3.13-.92,4.55s-1.45,2.66-2.52,3.73c-1.07,1.07-2.31,1.91-3.73,2.52-1.42.61-2.93.92-4.54.92h-30.21ZM301.04,26.81c-.72,0-1.41.14-2.06.42s-1.22.66-1.71,1.15c-.49.49-.87,1.05-1.15,1.69-.28.64-.42,1.34-.42,2.09v5.77c0,.75.14,1.45.42,2.09.28.64.66,1.21,1.15,1.69.49.49,1.06.87,1.71,1.15s1.34.42,2.06.42h30.21c.75,0,1.44-.14,2.08-.42.64-.28,1.2-.66,1.69-1.15.49-.49.87-1.05,1.15-1.69.28-.64.42-1.34.42-2.09v-5.77c0-.75-.14-1.45-.42-2.09-.28-.64-.66-1.21-1.15-1.69-.49-.49-1.05-.87-1.69-1.15-.64-.28-1.33-.42-2.08-.42h-30.21Z"/>
        <path class="cls-10" d="M447.25,20.42l-31.21,29.24-11.58-10.43-11.58,10.43-31.21-29.24h9.21l22.08,20.69,11.5-10.35,11.5,10.35,22.04-20.69h9.25Z"/>
        <path class="cls-10" d="M465.96,26.81v-6.38h53.62v6.38h-53.62ZM465.96,38.24v-6.38h53.62v6.38h-53.62ZM465.96,49.67v-6.38h53.62v6.38h-53.62Z"/>
        <path class="cls-10" d="M580.42,49.67l-7.33-7.09h-28.42v7.09h-6.38v-13.48h43.29c.64,0,1.24-.12,1.81-.38.57-.25,1.06-.59,1.48-1.01.42-.42.75-.92,1-1.49s.38-1.18.38-1.82-.12-1.25-.38-1.82-.58-1.07-1-1.49c-.42-.42-.91-.75-1.48-1.01-.57-.25-1.17-.38-1.81-.38h-43.29v-6.38h43.29c1.53,0,2.96.29,4.29.87,1.33.58,2.5,1.37,3.5,2.37s1.79,2.17,2.38,3.52c.58,1.35.88,2.78.88,4.31s-.27,2.85-.81,4.14c-.54,1.29-1.28,2.44-2.21,3.44-.93,1-2.03,1.8-3.29,2.42-1.26.61-2.62.96-4.06,1.04l7.38,7.13h-9.21Z"/>
      </g>
      <g>
        <circle class="cls-11" cx="316.07" cy="32.57" r="30.5" transform="translate(-1.66 36.03) rotate(-6.51)"/>
        <path class="cls-1" d="M298.27,58.12c-2.8-.93-3.01-.46-4.25-1.58-1.25-1.12-1.54-1.65.24-2.66.64.63,1.34,1.31,1.76,1.66,1.79.19,8.17,1.02,12.21,1.07,4.05.05,4.72,4.88,4.72,4.88l-14.68-3.37Z"/>
        <path class="cls-4" d="M289.09,43.44c-1.89-.49-4.28-1.63-4.65-3.09-.43-1.7.71-1.98,1.7-1.94.1.62.16.77.21,1,1.29.66,3.63,1.28,9.38,1.47,5.68.19,9.09.73,14.83,6.26,2.82,2.72,5.32,4.85,7.05,6.48,2.08,1.96,4.98,3.13,8.09,3.18,3.91.06,9.11-.89,10.4-1.23,1.14-1.04,1.18-1.07,1.56-1.46,1.19-.16,2.62.28.47,2.43-2.15,2.15-11.83,3.15-15.69,3.22-3.86.07-12.98-5.71-17.13-9.82-4.15-4.11-16.22-6.5-16.22-6.5Z"/>
        <path class="cls-7" d="M345.48,41.4c.97-.48,2.15-.85,2.36-1.62.2-.77-.85-.93-1.93-.86-.15.51-.08.41-.2.86-1.8.65-7.58,1.53-16.69,1.93-6.92.3-15.71.16-17.01.12l-1.96,1.13,4.49,1.3,20.07-.28,10.88-2.59Z"/>
        <path class="cls-14" d="M300.6,27.38c3.06-.54-.11-.93,3.31-1.28,3.42-.35,4.67-.14,6.85,1.93,2.18,2.07,10.48,9.34,11.68,10.48l-1.37.34-11.7-1.38-8.77-10.1Z"/>
        <path class="cls-3" d="M287.32,23.42c-1.61.83-2.73.63-2.97,1.72-.24,1.08,1.08,1.06,1.91.95.13-.59.28-1.06.28-1.06,0,0,9.08-1.82,18.14-1.88,5.05-.04,6.13,1.96,7.87,3.47,4.48,3.92,7.56,6.97,10.46,9.25,2.9,2.28,5.67,2.84,10.51,2.78,3.95-.05,10.36-.56,12.57-.77-.06.33-.08.54-.08.54,0,0,2.13-.21,2.27-.94.2-1.06-2.36-1.47-3.34-1.44-.99.03-13.68-2.71-13.68-2.71l-20.64-15.97-23.29,6.07Z"/>
        <path class="cls-2" d="M294.02,8.6c5.9-1.44,13.71-2.32,22.05-2.32s16.15.88,22.05,2.32c.63.45,1.47,2.09-.32,2.57-.4-.38-1.09-1.05-1.09-1.05,0,0-9.56-2.16-20.64-2.16s-17.88,1.42-20.46,1.99c-.79.69-1.34,1.29-1.34,1.29-1.16-.06-1.38-1.64-.25-2.65Z"/>
        <path class="cls-5" d="M325.5,11.32c-1.11-.41-4.07-1.2-4.07-1.2l-.7,1.2s8.57,8.44,11.06,10.51c2.49,2.07,3.04,2.18,5.26,2.47,2.21.29,6.42.82,8.68,1.11.04.15.07.32.12.5,1.2.18,2.13-.05,1.95-.77-.19-.78-22.29-13.82-22.29-13.82Z"/>
        <g>
          <path class="cls-9" d="M348.23,27.38h0c-3.76-.34-7.52-.61-11.28-.83-2.46-.14-4.81-1.15-6.59-2.85l-8.74-8.35c-3.56-3.4-8.32-5.36-13.24-5.13-8.43.39-15.22,1.41-18.3,2.73-2.7,3.57-4.68,7.7-5.73,12.2h0c2.72-1.4,10.93-2.53,21.19-3,2.46-.11,4.86.78,6.69,2.42l10.06,9.03c3.66,3.28,8.47,5.06,13.38,4.79,4.2-.23,8.4-.53,12.6-.91.24-1.6.37-3.24.37-4.9,0-1.77-.14-3.5-.41-5.19Z"/>
          <path class="cls-6" d="M321.07,38.86l-12.43-11.17c-1.19-1.07-2.75-1.65-4.35-1.6-7.34.21-13.06.64-20.38,1.3-.27,1.69-.41,3.42-.41,5.19,0,1.66.13,3.3.37,4.9h0c12.93,1.16,24.26,1.62,37.21,1.39Z"/>
          <path class="cls-13" d="M347.84,39.78c-3.53,1.87-16.82,3.26-31.77,3.26-2.05,0-4.06-.03-6.02-.08l9.71,8.73c2.14,1.88,4.91,2.83,7.69,2.82,7.76-.03,12.09-1.35,14.84-2.61,0,0,0,0,0,0,2.63-3.56,4.55-7.67,5.56-12.13Z"/>
          <path class="cls-15" d="M338.12,56.54c-3.54.87-7.03,1.46-11.67,1.72-4.02.23-6.98-.68-9.54-3.01l-9.08-8.19c-3.39-3.05-7.33-4.57-11.88-4.79-7.49-.38-10.01-1.28-11.52-1.91,1.04,4.24,2.91,8.15,5.42,11.56,1.79.82,5.01,1.53,9.18,2.06,2.27.29,4.45,1.18,6.19,2.67l2.24,1.91c-5.03-.38-9.64-1.07-13.45-2h0c5.8,5.34,13.55,8.6,22.05,8.6s16.25-3.26,22.06-8.6c0,0,0,0,0,0Z"/>
          <path class="cls-8" d="M294.02,8.6c5.9-1.44,13.71-2.32,22.05-2.32s16.15.88,22.05,2.32c0,0,.02.02.03.03-5.81-5.36-13.56-8.63-22.08-8.63s-16.28,3.28-22.09,8.64c.01-.01.03-.02.04-.03Z"/>
          <path class="cls-12" d="M332.75,20.95c1.16,1.11,2.67,1.79,4.27,1.97,5.19.57,9.06,1.34,10.76,2.22-1.05-4.5-3.03-8.63-5.73-12.2-3.36-1.43-11.13-2.52-20.64-2.82l11.33,10.83Z"/>
        </g>
      </g>
    </g>
  </g>
</svg>